<svg xmlns="http://www.w3.org/2000/svg" xmlns:xlink="http://www.w3.org/1999/xlink" width="90" height="17" viewBox="0 0 90 17">
  <defs>
    <clipPath id="clip-path">
      <rect id="Rectangle_30" data-name="Rectangle 30" width="10.953" height="10.494" fill="#df6128"/>
    </clipPath>
    <clipPath id="clip-path-5">
      <rect id="Rectangle_30-5" data-name="Rectangle 30" width="10.953" height="10.494" fill="#d1d1d1"/>
    </clipPath>
  </defs>
  <g id="Group_6193" data-name="Group 6193" transform="translate(-85 -6402)">
    <g id="Group_6187" data-name="Group 6187" transform="translate(85 6404.776)">
      <g id="Group_59" data-name="Group 59" transform="translate(0 0)" clip-path="url(#clip-path)">
        <path id="Path_257" data-name="Path 257" d="M4.819,7.727,2.24,9.448A.288.288,0,0,1,1.8,9.131l.84-2.984a.288.288,0,0,0-.1-.3L.11,3.921a.288.288,0,0,1,.167-.514l3.1-.123A.288.288,0,0,0,3.634,3.1L4.709.188a.288.288,0,0,1,.541,0L6.324,3.1a.288.288,0,0,0,.259.188l3.1.123a.288.288,0,0,1,.167.514L7.414,5.842a.288.288,0,0,0-.1.3l.84,2.984a.288.288,0,0,1-.437.318L5.139,7.727a.288.288,0,0,0-.32,0" transform="translate(0.498 0.498)" fill="#df6128"/>
      </g>
    </g>
    <g id="Group_6188" data-name="Group 6188" transform="translate(97 6404.776)">
      <g id="Group_59-2" data-name="Group 59" transform="translate(0 0)" clip-path="url(#clip-path)">
        <path id="Path_257-2" data-name="Path 257" d="M4.819,7.727,2.24,9.448A.288.288,0,0,1,1.8,9.131l.84-2.984a.288.288,0,0,0-.1-.3L.11,3.921a.288.288,0,0,1,.167-.514l3.1-.123A.288.288,0,0,0,3.634,3.1L4.709.188a.288.288,0,0,1,.541,0L6.324,3.1a.288.288,0,0,0,.259.188l3.1.123a.288.288,0,0,1,.167.514L7.414,5.842a.288.288,0,0,0-.1.3l.84,2.984a.288.288,0,0,1-.437.318L5.139,7.727a.288.288,0,0,0-.32,0" transform="translate(0.498 0.498)" fill="#df6128"/>
      </g>
    </g>
    <g id="Group_6189" data-name="Group 6189" transform="translate(109 6404.776)">
      <g id="Group_59-3" data-name="Group 59" transform="translate(0 0)" clip-path="url(#clip-path)">
        <path id="Path_257-3" data-name="Path 257" d="M4.819,7.727,2.24,9.448A.288.288,0,0,1,1.8,9.131l.84-2.984a.288.288,0,0,0-.1-.3L.11,3.921a.288.288,0,0,1,.167-.514l3.1-.123A.288.288,0,0,0,3.634,3.1L4.709.188a.288.288,0,0,1,.541,0L6.324,3.1a.288.288,0,0,0,.259.188l3.1.123a.288.288,0,0,1,.167.514L7.414,5.842a.288.288,0,0,0-.1.3l.84,2.984a.288.288,0,0,1-.437.318L5.139,7.727a.288.288,0,0,0-.32,0" transform="translate(0.498 0.498)" fill="#df6128"/>
      </g>
    </g>
    <g id="Group_6190" data-name="Group 6190" transform="translate(121 6404.776)">
      <g id="Group_59-4" data-name="Group 59" transform="translate(0 0)" clip-path="url(#clip-path)">
        <path id="Path_257-4" data-name="Path 257" d="M4.819,7.727,2.24,9.448A.288.288,0,0,1,1.8,9.131l.84-2.984a.288.288,0,0,0-.1-.3L.11,3.921a.288.288,0,0,1,.167-.514l3.1-.123A.288.288,0,0,0,3.634,3.1L4.709.188a.288.288,0,0,1,.541,0L6.324,3.1a.288.288,0,0,0,.259.188l3.1.123a.288.288,0,0,1,.167.514L7.414,5.842a.288.288,0,0,0-.1.3l.84,2.984a.288.288,0,0,1-.437.318L5.139,7.727a.288.288,0,0,0-.32,0" transform="translate(0.498 0.498)" fill="#df6128"/>
      </g>
    </g>
    <g id="Group_6191" data-name="Group 6191" transform="translate(133 6404.776)">
      <g id="Group_59-5" data-name="Group 59" transform="translate(0 0)" clip-path="url(#clip-path-5)">
        <path id="Path_257-5" data-name="Path 257" d="M4.819,7.727,2.24,9.448A.288.288,0,0,1,1.8,9.131l.84-2.984a.288.288,0,0,0-.1-.3L.11,3.921a.288.288,0,0,1,.167-.514l3.1-.123A.288.288,0,0,0,3.634,3.1L4.709.188a.288.288,0,0,1,.541,0L6.324,3.1a.288.288,0,0,0,.259.188l3.1.123a.288.288,0,0,1,.167.514L7.414,5.842a.288.288,0,0,0-.1.3l.84,2.984a.288.288,0,0,1-.437.318L5.139,7.727a.288.288,0,0,0-.32,0" transform="translate(0.498 0.498)" fill="#d1d1d1"/>
      </g>
    </g>
    <text id="_4.2" data-name="4.2" transform="translate(153 6416)" fill="#313131" font-size="14" font-family="'FieldGothic-No\.65Bold', Field Gothic" font-weight="700"><tspan x="0" y="0">4.2</tspan></text>
  </g>
</svg>
