<svg xmlns="http://www.w3.org/2000/svg" xmlns:xlink="http://www.w3.org/1999/xlink" width="79" height="98.315" viewBox="0 0 79 98.315">
  <defs>
    <clipPath id="clip-path">
      <rect id="Rectangle_3070" data-name="Rectangle 3070" width="55.584" height="50.169" fill="#fff"/>
    </clipPath>
  </defs>
  <g id="Group_6243" data-name="Group 6243" transform="translate(-681 -2659.685)">
    <g id="Group_6242" data-name="Group 6242" transform="translate(692.5 2659.685)">
      <g id="Group_6241" data-name="Group 6241" clip-path="url(#clip-path)">
        <path id="Path_3372" data-name="Path 3372" d="M26.332,10.544V9.992A5.17,5.17,0,0,1,22.68,5.1a5.1,5.1,0,1,1,10.2,0,5.17,5.17,0,0,1-3.652,4.893v.551H43.7a2.532,2.532,0,0,1,2.55,1.93l9.234,34.388a2.626,2.626,0,0,1-2.55,3.308H2.626a2.693,2.693,0,0,1-2.55-3.308L9.311,12.473a2.587,2.587,0,0,1,2.55-1.93Zm17.228,2.825H12L2.9,47.343H52.657ZM27.78,2.825A2.236,2.236,0,0,0,25.574,5.1,2.177,2.177,0,0,0,27.78,7.3,2.236,2.236,0,0,0,30.054,5.1,2.294,2.294,0,0,0,27.78,2.825" transform="translate(0)" fill="#fff"/>
      </g>
    </g>
    <text id="_470_KG" data-name="470 KG" transform="translate(682 2721)" fill="none" stroke="#fff" stroke-width="1" font-size="36" font-family="AcuminProExtraCond-BlackItalic, Acumin Pro ExtraCondensed" font-weight="800" font-style="italic"><tspan x="-35" y="26">470 KG</tspan></text>
  </g>
</svg>
