<svg xmlns="http://www.w3.org/2000/svg" xmlns:xlink="http://www.w3.org/1999/xlink" width="154.03" height="62.558" viewBox="0 0 154.03 62.558">
  <defs>
    <clipPath id="clip-path">
      <rect id="Rectangle_3010" data-name="Rectangle 3010" width="154.03" height="62.558" fill="#fff"/>
    </clipPath>
  </defs>
  <g id="Group_6244" data-name="Group 6244" transform="translate(0 0)">
    <g id="Group_6100" data-name="Group 6100" transform="translate(0 0)" clip-path="url(#clip-path)">
      <path id="Path_3206" data-name="Path 3206" d="M111.023,12.062H90.555l-2.594,8.945h8.662c-2.38,3.378-4.913,7-7.218,10.3-1.57,2.246-3.026,4.33-4.257,6.085-1.558,2.221-2.755,3.913-3.323,4.678l-2.306,7.959h20.537l2.585-8.945H94.2c4.216-5.987,13.608-19.653,14.543-21.131Z" transform="translate(0.002 0.001)" fill="#fff"/>
      <path id="Path_3207" data-name="Path 3207" d="M102.548,50.027h10.407l10.969-37.965H113.519Z" transform="translate(0.003 0.001)" fill="#fff"/>
      <path id="Path_3208" data-name="Path 3208" d="M124.647,9.63,127.412,0H117L114.24,9.63Z" transform="translate(0.003 0)" fill="#fff"/>
      <path id="Path_3209" data-name="Path 3209" d="M114.512,0H44.834L42.052,9.63H111.73Z" transform="translate(0.001 0)" fill="#e06128"/>
      <path id="Path_3210" data-name="Path 3210" d="M129.934,0l-2.782,9.63h24.094L154.027,0Z" transform="translate(0.003 0)" fill="#e06128"/>
      <path id="Path_3211" data-name="Path 3211" d="M49.008,21.318a1.2,1.2,0,0,1,.219-.183l-.007,0a.934.934,0,0,0-.212.181" transform="translate(0.001 0.001)" fill="#1e1e1e"/>
      <path id="Path_3212" data-name="Path 3212" d="M30.379,50.027H40.557l7.836-26.973.365-1.254.01-.034.026-.093a.912.912,0,0,1,.2-.341.208.208,0,0,1,.017-.014.934.934,0,0,1,.212-.181l.007,0a1.18,1.18,0,0,1,1.031-.2,1.2,1.2,0,0,1,.82,1.487l-2.9,10.043H48.2c2.6,0,5.193-.009,7.788.009.055,0,.1-.008.144-.011h.417l.056-.194.019-.068,3.711-12.926a10.813,10.813,0,0,0,.375-3.376c-.005-.078-.02-.152-.029-.229a3.956,3.956,0,0,0-2.616-3.551,6.117,6.117,0,0,0-1.217-.229,5.99,5.99,0,0,0-.72-.026c-.049,0-.1-.006-.146,0a6.07,6.07,0,0,0-.913.125,6.919,6.919,0,0,0-1.117.322,5.926,5.926,0,0,0-.679.346,9.274,9.274,0,0,0-2.9,2.694c-.24.32-.454.659-.667,1l.08-.276,1.158-4.01H41.214c-.507,1.972-1.682,6.2-3.614,12.96Z" transform="translate(0.001 0.001)" fill="#fff"/>
      <path id="Path_3213" data-name="Path 3213" d="M73.807,25.421l-.129.447h0Z" transform="translate(0.002 0.001)" fill="#1e1e1e"/>
      <path id="Path_3214" data-name="Path 3214" d="M27.855,12.209a1.145,1.145,0,0,0,.019-.233L22.293,31.289Z" transform="translate(0.001 0.001)" fill="#1e1e1e"/>
      <path id="Path_3215" data-name="Path 3215" d="M77.069,50.027c.324-1.409,2.332-8.17,2.985-10.283l4.706-16.2C87.543,13.964,82.924,11.5,75.472,11.5c-7.252,0-11.1,2.535-13.5,10.847l-.385,1.338H71.809l1.069-3.7a1.2,1.2,0,1,1,2.306.666l-1.378,4.768-.127.447h0c-.336,0-1.08.07-1.622.141-.328.032-.634.074-.95.112-8.53,1.027-12.363,4.053-14.671,11.932-2.4,8.31-.63,12.607,4.271,12.607a8.521,8.521,0,0,0,3.51-.69A9.914,9.914,0,0,0,67.4,47.61c.106-.113.211-.21.318-.33-.221.986-.434,1.9-.577,2.747Zm-9.456-7.71a1.189,1.189,0,0,1-.83-1.364L69.3,32.328A1.2,1.2,0,1,1,71.6,33l-2.5,8.5a1.2,1.2,0,0,1-1.486.82" transform="translate(0.001 0.001)" fill="#fff"/>
      <path id="Path_3216" data-name="Path 3216" d="M137.678,11.452c-6.445,0-11.666,2.113-14.461,11.833l-4.062,14.227c-2.528,8.946.937,13.1,8.792,13.1,7.52,0,12.429-3.169,14.937-11.9l3.774-13.242c2.987-10.353-1.8-14.016-8.98-14.016M137.05,21.2l-5.892,20.332a1.2,1.2,0,1,1-2.306-.666l5.891-20.332a1.2,1.2,0,0,1,2.307.666" transform="translate(0.003 0.001)" fill="#fff"/>
      <path id="Path_3217" data-name="Path 3217" d="M14.231,50.55a19.577,19.577,0,0,0,2.023.111c.153,0,.3-.008.447-.01,6.1-.084,10.067-1.908,12.807-7.763.307-.654.6-1.37.871-2.128.27-.739.531-1.51.775-2.354l6.326-21.695c2.513-8.649.18-13.379-6.864-14.219a20.346,20.346,0,0,0-2.422-.149H28.16C22.914,2.351,18.9,3.929,16.111,9c-.016.03-.033.058-.049.088a25.282,25.282,0,0,0-1.981,4.947L7.376,37c-2.528,8.608.2,12.867,6.855,13.553m2.783-9.72L19.965,30.7l5.584-19.158a1.2,1.2,0,0,1,1.486-.82,1.183,1.183,0,0,1,.839,1.254,1.14,1.14,0,0,1-.018.232L22.294,31.29,19.32,41.5A1.191,1.191,0,0,1,17,40.953c.008-.042,0-.082.011-.123" transform="translate(0 0)" fill="#fff"/>
      <path id="Path_3218" data-name="Path 3218" d="M64.8,52.874h1.838L65.6,56.546h1.2l1.038-3.672H69.68l-2.7,9.538H65.134l1.2-4.249h-1.2l-1.2,4.249H62.1Z" transform="translate(0.002 0.002)" fill="#e06128"/>
      <path id="Path_3219" data-name="Path 3219" d="M74.9,55.426l-1.251,4.426a3.209,3.209,0,0,1-3.324,2.7c-1.582,0-2.16-.832-1.637-2.686l1.271-4.493a3.235,3.235,0,0,1,3.23-2.646c1.479,0,2.25.79,1.711,2.7m-3.04-.207L70.48,60.1c-.166.59-.052.9.358.9.428,0,.7-.278.878-.905L73.1,55.205c.168-.6.089-.9-.371-.9-.391,0-.688.281-.867.914" transform="translate(0.002 0.002)" fill="#e06128"/>
      <path id="Path_3220" data-name="Path 3220" d="M76.606,52.874h2.256c1.621,0,2.206.7,1.789,2.176l-.106.379c-.367,1.293-.962,1.7-1.462,1.87.389.182.936.535.561,1.865l-.216.76a2.947,2.947,0,0,1-3.141,2.488H73.908Zm-.512,8.108h.367c.655,0,.9-.3,1.1-1.01L77.8,59.1c.21-.74.123-1.057-.629-1.057h-.25Zm1.522-4.354c.619,0,.888-.2,1.1-.928l.139-.493c.174-.611.055-.888-.528-.888h-.343l-.654,2.309Z" transform="translate(0.002 0.002)" fill="#e06128"/>
      <path id="Path_3221" data-name="Path 3221" d="M82.3,52.874h2.256c1.621,0,2.206.7,1.789,2.176l-.106.379c-.367,1.293-.962,1.7-1.462,1.87.389.182.936.535.561,1.865l-.216.76a2.947,2.947,0,0,1-3.141,2.488H79.6Zm-.512,8.108h.367c.655,0,.9-.3,1.1-1.01l.247-.875c.21-.74.123-1.057-.629-1.057h-.25Zm1.522-4.354c.619,0,.888-.2,1.1-.928l.139-.493c.174-.611.055-.888-.528-.888h-.343l-.654,2.309Z" transform="translate(0.002 0.002)" fill="#e06128"/>
      <path id="Path_3222" data-name="Path 3222" d="M86.318,62.412l.864-3.054a2.1,2.1,0,0,0,.073-.493l.017-5.991h2c-.132,1.375-.279,2.956-.5,4.157h.06c.478-1.14,1.24-2.757,1.884-4.157h1.893l-3.451,6.143a2.034,2.034,0,0,0-.162.412l-.843,2.983Z" transform="translate(0.002 0.002)" fill="#e06128"/>
      <path id="Path_3223" data-name="Path 3223" d="M97.221,58.2H95.254l-.735,2.6h2.306l-.678,1.612H92.226l2.7-9.538h3.908L98.373,54.5H96.3l-.591,2.09h1.968Z" transform="translate(0.002 0.002)" fill="#e06128"/>
      <path id="Path_3224" data-name="Path 3224" d="M101.58,52.874h3.957l-.459,1.622h-2.119l-.616,2.173h2l-.459,1.622h-2l-1.164,4.121H98.882Z" transform="translate(0.003 0.002)" fill="#e06128"/>
      <path id="Path_3225" data-name="Path 3225" d="M105.6,60.142l-.878,2.27h-1.869l4.046-9.538h2.736l-1.317,9.538h-1.909l.38-2.27Zm1.492-1.618c.209-1.221.543-3.077.712-3.991h-.072c-.221.665-1.054,2.811-1.513,3.991Z" transform="translate(0.003 0.002)" fill="#e06128"/>
      <path id="Path_3226" data-name="Path 3226" d="M113.51,52.874l-2.7,9.538H108.98l2.7-9.538Z" transform="translate(0.003 0.002)" fill="#e06128"/>
      <path id="Path_3227" data-name="Path 3227" d="M116.49,52.874h2.256c1.965,0,2.391.9,1.833,2.871l-1.016,3.585c-.464,1.644-1.218,3.083-3.39,3.083h-2.381Zm-.441,8.06h.357c.719,0,.97-.469,1.181-1.213L118.8,55.45c.2-.705.149-1.088-.544-1.088h-.344Z" transform="translate(0.003 0.002)" fill="#e06128"/>
      <path id="Path_3228" data-name="Path 3228" d="M121.93,60.142l-.878,2.27h-1.871l4.048-9.538h2.736l-1.317,9.538h-1.911l.38-2.27Zm1.49-1.618c.209-1.221.545-3.077.714-3.991h-.072c-.221.665-1.056,2.811-1.515,3.991Z" transform="translate(0.003 0.002)" fill="#e06128"/>
      <path id="Path_3229" data-name="Path 3229" d="M130.293,54.5H128.9l.459-1.622h4.621l-.459,1.622h-1.4l-2.239,7.916h-1.832Z" transform="translate(0.003 0.002)" fill="#e06128"/>
      <path id="Path_3230" data-name="Path 3230" d="M136.921,58.2h-1.969l-.735,2.6h2.307l-.677,1.612h-3.923l2.7-9.538h3.908l-.459,1.622H136l-.591,2.09h1.966Z" transform="translate(0.003 0.002)" fill="#e06128"/>
      <path id="Path_3231" data-name="Path 3231" d="M2.783,52.814,0,62.444H59.4l2.782-9.63Z" transform="translate(0 0.002)" fill="#e06128"/>
    </g>
  </g>
</svg>
