<svg xmlns="http://www.w3.org/2000/svg" xmlns:xlink="http://www.w3.org/1999/xlink" width="131.511" height="24.968" viewBox="0 0 131.511 24.968">
  <defs>
    <clipPath id="clip-path">
      <rect id="Rectangle_3207" data-name="Rectangle 3207" width="131.511" height="24.968" fill="none"/>
    </clipPath>
  </defs>
  <g id="Group_6549" data-name="Group 6549" transform="translate(0 0)">
    <path id="Path_3649" data-name="Path 3649" d="M7.215,0,0,24.968H124.3L131.511,0Z" transform="translate(0 0)" fill="#1a4f27"/>
    <g id="Group_6548" data-name="Group 6548" transform="translate(0 0)">
      <g id="Group_6547" data-name="Group 6547" clip-path="url(#clip-path)">
        <path id="Path_3650" data-name="Path 3650" d="M12.263,18.069H9.914a9.424,9.424,0,0,1,.236-1.2,3.627,3.627,0,0,1-3.018,1.447c-2.528,0-2.639-1.88-1.8-4.532L7.762,6.143c.791-2.492,2.476-4.553,5.572-4.553,3.741,0,3.251,2.72,2.733,4.358l-.231.731H12.691l.285-.894c.249-.786.384-1.514-.485-1.514-.713,0-1.143.521-1.48,1.579L8.367,14.173c-.35,1.1-.122,1.509.5,1.509.76,0,1.206-.591,1.631-1.926l.742-2.328H10.163L11,8.8h4.211Z" transform="translate(7.747 2.533)" fill="#fff"/>
        <path id="Path_3651" data-name="Path 3651" d="M16.717,1.684l-5.16,16.233H8.441L13.6,1.684Z" transform="translate(13.445 2.684)" fill="#fff"/>
        <path id="Path_3652" data-name="Path 3652" d="M14.908,14.054l-1.628,3.863H10.1L17.552,1.684h4.657L19.4,17.917H16.149l.783-3.863ZM17.542,11.3c.428-2.077,1.11-5.237,1.452-6.793h-.122c-.417,1.133-1.963,4.786-2.816,6.793Z" transform="translate(16.083 2.683)" fill="#fff"/>
        <path id="Path_3653" data-name="Path 3653" d="M19.476,10.861l-2.243,7.057H14.114l5.16-16.233h4.05c2.722,0,3.687,1.193,2.787,4.032l-.187.583c-.736,2.315-1.877,3-2.678,3.332.856.487,1.092,1.229.373,3.495-.5,1.566-1.276,3.938-1.41,4.791H19.185A34.228,34.228,0,0,1,20.565,13c.578-1.825.469-2.136-.721-2.136Zm.791-2.46h.386c1.042,0,1.574-.332,2.051-1.841l.249-.783c.347-1.092.3-1.633-.848-1.633h-.487Z" transform="translate(22.48 2.685)" fill="#fff"/>
        <path id="Path_3654" data-name="Path 3654" d="M23.055,1.685h3.84c3.345,0,4.014,1.525,2.948,4.885L27.9,12.67c-.889,2.8-2.258,5.248-5.955,5.248H17.895ZM21.823,15.4h.609c1.224,0,1.68-.8,2.082-2.064l2.31-7.27c.381-1.2.319-1.851-.861-1.851h-.586Z" transform="translate(28.502 2.685)" fill="#fff"/>
        <path id="Path_3655" data-name="Path 3655" d="M30.041,1.684l-5.16,16.233H21.765L26.922,1.684Z" transform="translate(34.666 2.684)" fill="#fff"/>
        <path id="Path_3656" data-name="Path 3656" d="M23.722,17.918l5.16-16.233h3.454c-.111,1.978-.822,9.331-.92,10.044h.078c.513-2.16,1.34-5.113,2.061-7.379L34.4,1.685h2.9L32.141,17.918H28.653c.153-1.545,1.047-9.946,1.107-10.464h-.083c-.485,1.911-1.416,5.139-2.227,7.693l-.882,2.772Z" transform="translate(37.783 2.685)" fill="#fff"/>
        <path id="Path_3657" data-name="Path 3657" d="M32.229,14.054,30.6,17.917H27.419L34.873,1.684H39.53L36.722,17.917H33.47l.783-3.863ZM34.863,11.3c.428-2.077,1.11-5.237,1.452-6.793h-.122c-.417,1.133-1.963,4.786-2.816,6.793Z" transform="translate(43.671 2.683)" fill="#fff"/>
        <path id="Path_3658" data-name="Path 3658" d="M39.127,18.069H36.778a9.425,9.425,0,0,1,.236-1.2A3.627,3.627,0,0,1,34,18.313c-2.528,0-2.639-1.88-1.8-4.532l2.427-7.638C35.417,3.651,37.1,1.59,40.2,1.59c3.741,0,3.251,2.72,2.733,4.358L42.7,6.68H39.555l.283-.894c.251-.786.386-1.514-.482-1.514-.713,0-1.143.521-1.48,1.579L35.23,14.173c-.35,1.1-.122,1.509.5,1.509.76,0,1.206-.591,1.631-1.926l.742-2.328H37.027L37.865,8.8h4.211Z" transform="translate(50.534 2.533)" fill="#fff"/>
        <path id="Path_3659" data-name="Path 3659" d="M42.974,18.069H40.625a9.424,9.424,0,0,1,.236-1.2,3.627,3.627,0,0,1-3.018,1.447c-2.528,0-2.639-1.88-1.8-4.532l2.427-7.638c.791-2.492,2.476-4.553,5.572-4.553,3.741,0,3.251,2.72,2.733,4.358l-.233.731H43.4l.283-.894c.251-.786.386-1.514-.482-1.514-.713,0-1.143.521-1.48,1.579l-2.645,8.323c-.35,1.1-.122,1.509.5,1.509.76,0,1.206-.591,1.631-1.926l.742-2.328H40.874L41.712,8.8h4.211Z" transform="translate(56.662 2.533)" fill="#fff"/>
        <path id="Path_3660" data-name="Path 3660" d="M47.428,1.684l-5.16,16.233H39.152L44.309,1.684Z" transform="translate(62.359 2.684)" fill="#fff"/>
        <path id="Path_3661" data-name="Path 3661" d="M52.619,6.178l-2.393,7.532c-1.024,3.22-2.979,4.6-5.818,4.6-2.694,0-3.627-1.416-2.626-4.571l2.429-7.646c1-3.137,3.155-4.5,5.655-4.5,2.518,0,3.783,1.343,2.753,4.587m-5.165-.353-2.637,8.3c-.319,1-.14,1.525.557,1.525.729,0,1.211-.474,1.55-1.54L49.562,5.8c.324-1.016.207-1.532-.578-1.532-.666,0-1.187.48-1.53,1.556" transform="translate(65.923 2.535)" fill="#fff"/>
      </g>
    </g>
  </g>
</svg>
