<svg xmlns="http://www.w3.org/2000/svg" width="71" height="71" viewBox="0 0 71 71">
  <g id="Group_6238" data-name="Group 6238" transform="translate(-411 -3081)">
    <circle id="Ellipse_9" data-name="Ellipse 9" cx="35.5" cy="35.5" r="35.5" transform="translate(411 3081)" fill="#df6128"/>
    <g id="Group_54" data-name="Group 54" transform="translate(-1194.281 -354.282)">
      <g id="Group_53" data-name="Group 53" transform="translate(1624.998 3455)">
        <path id="Path_14" data-name="Path 14" d="M41.611,5c-2.742.16-7.678.63-9.932,1.984-2.9,1.741-5.756,5.008-8.062,8.145l-4.6.6A2.572,2.572,0,0,0,17,17.254l-1.079,2.49a.7.7,0,0,0,.522.969l3.135.554c-.233.394-.432.738-.588,1.014a1.9,1.9,0,0,0,.31,2.274l.175.175-.744.744a1.925,1.925,0,0,0,0,2.718l1.7,1.7a1.922,1.922,0,0,0,2.718,0l.743-.743.175.175a1.892,1.892,0,0,0,2.274.31c.276-.156.619-.355,1.014-.588l.554,3.135a.7.7,0,0,0,.969.522l2.49-1.078a2.572,2.572,0,0,0,1.52-2.016l.6-4.6c3.137-2.307,6.4-5.165,8.145-8.062,1.354-2.254,1.825-7.19,1.984-9.932a1.9,1.9,0,0,0-2-2ZM17.561,19.486l.726-1.675a1.162,1.162,0,0,1,.911-.687l3.306-.432c-.825,1.192-1.55,2.32-2.147,3.288Zm4.592,9.408a.531.531,0,0,1-.734,0l-1.7-1.7a.519.519,0,0,1,0-.734l.744-.743L22.9,28.151Zm9.34.526a1.162,1.162,0,0,1-.687.911l-1.675.726-.494-2.795c.967-.6,2.1-1.323,3.288-2.147Zm8.935-13.2C37.216,21.564,28.3,26.9,25.645,28.408a.5.5,0,0,1-.589-.082l-.67-.67h0l-3.422-3.422h0l-.67-.67a.492.492,0,0,1-.082-.589C21.718,20.318,27.054,11.4,32.4,8.19c2.071-1.244,7.188-1.664,9.322-1.787a.493.493,0,0,1,.492.523C42.092,9.03,41.672,14.146,40.428,16.217Z" transform="translate(-12.053 -5)" fill="#fff" stroke="#fff" stroke-width="0.5"/>
        <path id="Path_15" data-name="Path 15" d="M62.7,20.262a3.623,3.623,0,1,0,2.562,1.061A3.6,3.6,0,0,0,62.7,20.262Zm1.57,5.193a2.22,2.22,0,1,1,0-3.14A2.206,2.206,0,0,1,64.274,25.455Z" transform="translate(-40.114 -14.909)" fill="#fff" stroke="#fff" stroke-width="0.5"/>
        <path id="Path_16" data-name="Path 16" d="M9.133,72.151A3.854,3.854,0,0,0,6.39,73.287c-1.381,1.38-1.4,5.394-1.39,6.184a.7.7,0,0,0,.693.693h.1c1.412,0,4.832-.135,6.086-1.39a3.88,3.88,0,0,0-2.743-6.623Zm1.751,5.631c-.6.6-2.632.913-4.475.97.052-1.686.352-3.853.972-4.473a2.477,2.477,0,0,1,3.5,3.5Z" transform="translate(-4.998 -48.6)" fill="#fff" stroke="#fff" stroke-width="0.5"/>
      </g>
    </g>
  </g>
</svg>
