<svg id="Group_6160" data-name="Group 6160" xmlns="http://www.w3.org/2000/svg" xmlns:xlink="http://www.w3.org/1999/xlink" width="125.815" height="24.868" viewBox="0 0 125.815 24.868">
  <defs>
    <clipPath id="clip-path">
      <rect id="Rectangle_3039" data-name="Rectangle 3039" width="125.814" height="24.867" fill="none"/>
    </clipPath>
  </defs>
  <path id="Path_3295" data-name="Path 3295" d="M7.186,0,0,24.867H118.63L125.814,0Z" transform="translate(0 0)" fill="#214093"/>
  <g id="Group_6151" data-name="Group 6151" transform="translate(0.001)">
    <g id="Group_6150" data-name="Group 6150" clip-path="url(#clip-path)">
      <path id="Path_3296" data-name="Path 3296" d="M8.922,13.242l-.364,1.149c-.346,1.09-.238,1.6.491,1.6s1.147-.749,1.4-1.534c.5-1.565.346-2.017-.9-3.434C8.184,9.435,7.52,8.5,8.3,6.055c.751-2.368,2.229-4.55,5.371-4.55,3.336,0,3.106,2.275,2.5,4.17l-.3.958H12.855l.315-.994c.32-1.007.315-1.505-.315-1.505-.589,0-.943.506-1.24,1.446-.318,1-.292,1.493.739,2.562,1.831,1.916,2.365,2.993,1.5,5.725-.826,2.6-2.394,4.736-5.689,4.736C5,18.6,4.7,16.694,5.483,14.236l.315-.994Z" transform="translate(8.1 2.382)" fill="#fff"/>
      <path id="Path_3297" data-name="Path 3297" d="M13.179,14.242,11.513,18.19H8.262L15.877,1.607h4.757L17.765,18.19H14.447l.8-3.948Zm2.688-2.812C16.306,9.307,17,6.08,17.352,4.491h-.127c-.426,1.157-2,4.888-2.877,6.939Z" transform="translate(13.073 2.544)" fill="#fff"/>
      <path id="Path_3298" data-name="Path 3298" d="M17.651,1.607h3.194L16.463,15.4h4.01L19.3,18.191H12.381Z" transform="translate(19.59 2.544)" fill="#fff"/>
      <path id="Path_3299" data-name="Path 3299" d="M15.777,18.19,18.558,1.607h3.391L20.59,7.75c-.475,2.13-.976,4.535-1.531,6.647h.127c.777-2.11,1.769-4.382,2.66-6.626l2.479-6.164h3.331L19.934,18.19Z" transform="translate(24.964 2.544)" fill="#fff"/>
      <path id="Path_3300" data-name="Path 3300" d="M23.146,14.242,21.483,18.19H18.232L25.847,1.607H30.6L27.735,18.19H24.417l.8-3.948Zm2.691-2.812c.439-2.123,1.134-5.351,1.485-6.939H27.2c-.426,1.157-2,4.888-2.877,6.939Z" transform="translate(28.848 2.544)" fill="#fff"/>
      <path id="Path_3301" data-name="Path 3301" d="M26.428,13.242l-.367,1.149c-.346,1.09-.235,1.6.493,1.6s1.144-.749,1.394-1.534c.5-1.565.346-2.017-.9-3.434C25.687,9.435,25.024,8.5,25.8,6.055c.754-2.368,2.231-4.55,5.374-4.55,3.334,0,3.1,2.275,2.5,4.17l-.3.958H30.361l.315-.994c.32-1.007.312-1.505-.318-1.505-.589,0-.94.506-1.237,1.446-.318,1-.294,1.493.739,2.562,1.828,1.916,2.363,2.993,1.5,5.725-.826,2.6-2.394,4.736-5.689,4.736-3.163,0-3.458-1.908-2.678-4.367l.315-.994Z" transform="translate(35.8 2.382)" fill="#fff"/>
      <path id="Path_3302" data-name="Path 3302" d="M31.268,1.607h4.258c2.75,0,3.651,1.456,2.719,4.392l-.323,1.015c-.919,2.9-2.575,4.658-5.722,4.658h-.935L29.195,18.19H26Zm.821,7.481H32.6c1.211,0,1.684-.679,2.123-2.058l.362-1.147c.341-1.072.307-1.764-.754-1.764h-.669Z" transform="translate(41.136 2.544)" fill="#fff"/>
      <path id="Path_3303" data-name="Path 3303" d="M34.132,14.242,32.464,18.19H29.213L36.828,1.607h4.757L38.716,18.19H35.4l.8-3.948ZM36.82,11.43c.436-2.123,1.131-5.351,1.482-6.939h-.127c-.426,1.157-2,4.888-2.877,6.939Z" transform="translate(46.224 2.544)" fill="#fff"/>
      <path id="Path_3304" data-name="Path 3304" d="M33.905,16.062,41.941,4.445h-3.93l.9-2.838h7.341l-.772,2.425L37.75,15.368h4.287l-1.27,2.822H33.229Z" transform="translate(52.577 2.543)" fill="#fff"/>
      <path id="Path_3305" data-name="Path 3305" d="M45.178,1.607l-5.27,16.583H36.724l5.27-16.583Z" transform="translate(58.108 2.544)" fill="#fff"/>
      <path id="Path_3306" data-name="Path 3306" d="M50.489,6.2l-2.445,7.7C47,17.178,45,18.59,42.1,18.59c-2.753,0-3.706-1.446-2.683-4.669L41.9,6.113c1.02-3.2,3.223-4.6,5.777-4.6,2.569,0,3.863,1.374,2.812,4.684m-5.276-.359-2.693,8.478c-.325,1.025-.145,1.557.571,1.557.741,0,1.234-.483,1.58-1.573l2.7-8.485c.331-1.038.212-1.565-.591-1.565-.679,0-1.214.488-1.562,1.588" transform="translate(61.74 2.392)" fill="#fff"/>
    </g>
  </g>
</svg>
