<svg xmlns="http://www.w3.org/2000/svg" width="412.283" height="15" viewBox="0 0 412.283 15">
  <g id="Group_6416" data-name="Group 6416" transform="translate(-70 -239)">
    <text id="HOME" transform="translate(70 239)" fill="#1e1e1e" font-size="12" font-family="'FieldGothic-No\.64Demi', Field Gothic" font-weight="300"><tspan x="0" y="12">HOME</tspan></text>
    <text id="PRODOTTI" transform="translate(124 239)" fill="#1e1e1e" font-size="12" font-family="'FieldGothic-No\.64Demi', Field Gothic" font-weight="300"><tspan x="0" y="12">PRODOTTI</tspan></text>
    <text id="HOBBY_E_FAI_DA_TE" data-name="HOBBY E FAI DA TE" transform="translate(200 239)" fill="#1e1e1e" font-size="12" font-family="'FieldGothic-No\.64Demi', Field Gothic" font-weight="300"><tspan x="0" y="12">HOBBY E FAI DA TE</tspan></text>
    <text id="CAVALLETTO_PROFESSIO_" data-name="CAVALLETTO PROFESSIO…" transform="translate(324.283 239)" fill="#c1c1c1" font-size="12" font-family="'FieldGothic-No\.64Demi', Field Gothic" font-weight="300"><tspan x="0" y="12">CAVALLETTO PROFESSIO…</tspan></text>
    <path id="Path_3363" data-name="Path 3363" d="M3.646,0,7.123,2.944H0V4.409H7.143L3.781,7.255H6.227l4.217-3.57L6.091,0Z" transform="translate(108.637 243)" fill="#1e1e1e"/>
    <path id="Path_3364" data-name="Path 3364" d="M3.646,0,7.123,2.944H0V4.409H7.143L3.781,7.255H6.227l4.217-3.57L6.091,0Z" transform="translate(184.637 243)" fill="#1e1e1e"/>
    <path id="Path_3523" data-name="Path 3523" d="M3.646,0,7.123,2.944H0V4.409H7.143L3.781,7.255H6.227l4.217-3.57L6.091,0Z" transform="translate(305.92 243)" fill="#c1c1c1"/>
  </g>
</svg>
