<svg id="Group_6161" data-name="Group 6161" xmlns="http://www.w3.org/2000/svg" xmlns:xlink="http://www.w3.org/1999/xlink" width="157.254" height="24.936" viewBox="0 0 157.254 24.936">
  <defs>
    <clipPath id="clip-path">
      <rect id="Rectangle_3040" data-name="Rectangle 3040" width="157.252" height="24.936" fill="none"/>
    </clipPath>
  </defs>
  <path id="Path_3307" data-name="Path 3307" d="M7.206,0,0,24.936H150.051L157.254,0Z" transform="translate(0 0)" fill="#df6128"/>
  <path id="Path_3308" data-name="Path 3308" d="M9.261,1.607h3.216L10.662,8.032h2.095l1.815-6.424h3.234L13.083,18.3H9.851l2.1-7.434H9.862L7.756,18.3H4.54Z" transform="translate(7.217 2.556)" fill="#fff"/>
  <g id="Group_6154" data-name="Group 6154" transform="translate(0.001)">
    <g id="Group_6153" data-name="Group 6153" clip-path="url(#clip-path)">
      <path id="Path_3309" data-name="Path 3309" d="M20.065,6.226l-2.191,7.745c-.937,3.309-2.9,4.731-5.816,4.731-2.768,0-3.781-1.455-2.864-4.7l2.224-7.861c.911-3.224,3.081-4.63,5.65-4.63,2.587,0,3.938,1.38,3,4.715m-5.321-.363L12.331,14.4c-.29,1.033-.091,1.569.627,1.569.748,0,1.227-.487,1.538-1.585l2.413-8.54c.3-1.044.158-1.577-.647-1.577-.684,0-1.2.492-1.517,1.6" transform="translate(14.092 2.403)" fill="#fff"/>
      <path id="Path_3310" data-name="Path 3310" d="M17.24,1.607h3.949c2.835,0,3.861,1.227,3.131,3.809l-.186.663c-.642,2.261-1.683,2.973-2.558,3.27.681.318,1.639.937.981,3.265l-.375,1.328c-.826,2.916-2.45,4.355-5.5,4.355H12.52Zm-.893,14.187h.642c1.145,0,1.567-.531,1.916-1.766l.432-1.533c.368-1.295.215-1.849-1.1-1.849H17.8Zm2.662-7.618c1.082,0,1.554-.347,1.916-1.624l.243-.862c.3-1.069.1-1.554-.924-1.554h-.6L18.5,8.176Z" transform="translate(19.899 2.555)" fill="#fff"/>
      <path id="Path_3311" data-name="Path 3311" d="M21.085,1.607h3.946c2.835,0,3.861,1.227,3.131,3.809l-.186.663c-.642,2.261-1.683,2.973-2.558,3.27.684.318,1.639.937.981,3.265l-.375,1.328c-.826,2.916-2.45,4.355-5.5,4.355H16.365Zm-.9,14.187h.642c1.145,0,1.567-.531,1.916-1.766L23.18,12.5c.368-1.295.215-1.849-1.1-1.849h-.44Zm2.664-7.618c1.08,0,1.551-.347,1.916-1.624l.243-.862c.3-1.069.093-1.554-.927-1.554h-.6L22.344,8.176Z" transform="translate(26.011 2.555)" fill="#fff"/>
      <path id="Path_3312" data-name="Path 3312" d="M20.906,18.3l1.512-5.345a3.767,3.767,0,0,0,.127-.862l.031-10.482h3.5c-.23,2.406-.489,5.171-.878,7.274H25.3c.836-2,2.17-4.824,3.3-7.274h3.312L25.87,12.357a3.551,3.551,0,0,0-.282.72L24.112,18.3Z" transform="translate(33.228 2.557)" fill="#fff"/>
      <path id="Path_3313" data-name="Path 3313" d="M33.64,10.926H30.2l-1.287,4.55h4.037L31.763,18.3H24.9L29.622,1.607H36.46l-.805,2.841H32.03L31,8.1H34.44Z" transform="translate(39.574 2.555)" fill="#fff"/>
      <path id="Path_3314" data-name="Path 3314" d="M34.118,1.607h6.924l-.8,2.838H36.531l-1.077,3.8h3.5l-.8,2.841h-3.5L32.613,18.3H29.4Z" transform="translate(46.724 2.556)" fill="#fff"/>
      <path id="Path_3315" data-name="Path 3315" d="M36.891,14.327,35.352,18.3h-3.27L39.161,1.608h4.788L41.645,18.3H38.307l.663-3.97Zm2.61-2.833c.365-2.136.95-5.383,1.246-6.984h-.127c-.386,1.163-1.844,4.92-2.646,6.984Z" transform="translate(50.991 2.557)" fill="#fff"/>
      <path id="Path_3316" data-name="Path 3316" d="M44.147,1.607,39.426,18.3H36.221l4.72-16.689Z" transform="translate(57.569 2.556)" fill="#fff"/>
      <path id="Path_3317" data-name="Path 3317" d="M44.193,1.608h3.949c3.436,0,4.182,1.567,3.206,5.021L49.572,12.9c-.813,2.877-2.134,5.394-5.932,5.394H39.473Zm-.772,14.1h.627c1.256,0,1.7-.821,2.064-2.123l2.116-7.473c.35-1.235.262-1.9-.953-1.9h-.6Z" transform="translate(62.738 2.557)" fill="#fff"/>
      <path id="Path_3318" data-name="Path 3318" d="M47.925,14.327,46.39,18.3H43.114L50.2,1.608h4.788L52.682,18.3H49.339L50,14.327Zm2.608-2.833c.365-2.136.953-5.383,1.251-6.984h-.127c-.388,1.163-1.849,4.92-2.652,6.984Z" transform="translate(68.525 2.557)" fill="#fff"/>
      <path id="Path_3319" data-name="Path 3319" d="M53.028,4.446H50.594l.8-2.838h8.087l-.8,2.838H56.234L52.316,18.3H49.11Z" transform="translate(78.056 2.556)" fill="#fff"/>
      <path id="Path_3320" data-name="Path 3320" d="M60.469,10.926H57.025l-1.287,4.55h4.034L58.592,18.3H51.725l4.72-16.691h6.839l-.8,2.841H58.859L57.825,8.1h3.441Z" transform="translate(82.212 2.555)" fill="#fff"/>
    </g>
  </g>
</svg>
