<svg id="Group_61" data-name="Group 61" xmlns="http://www.w3.org/2000/svg" xmlns:xlink="http://www.w3.org/1999/xlink" width="10.953" height="10.494" viewBox="0 0 10.953 10.494">
  <defs>
    <clipPath id="clip-path">
      <rect id="Rectangle_30" data-name="Rectangle 30" width="10.953" height="10.494" fill="#2c633d"/>
    </clipPath>
  </defs>
  <g id="Group_59" data-name="Group 59" transform="translate(0 0)" clip-path="url(#clip-path)">
    <path id="Path_257" data-name="Path 257" d="M4.819,7.727,2.24,9.448A.288.288,0,0,1,1.8,9.131l.84-2.984a.288.288,0,0,0-.1-.3L.11,3.921a.288.288,0,0,1,.167-.514l3.1-.123A.288.288,0,0,0,3.634,3.1L4.709.188a.288.288,0,0,1,.541,0L6.324,3.1a.288.288,0,0,0,.259.188l3.1.123a.288.288,0,0,1,.167.514L7.414,5.842a.288.288,0,0,0-.1.3l.84,2.984a.288.288,0,0,1-.437.318L5.139,7.727a.288.288,0,0,0-.32,0" transform="translate(0.498 0.498)" fill="#2c633d"/>
  </g>
</svg>
