<svg xmlns="http://www.w3.org/2000/svg" width="18.298" height="17.449" viewBox="0 0 18.298 17.449">
  <g id="Group_6126" data-name="Group 6126" transform="translate(-1345.277 -42.801)">
    <path id="Path_1" data-name="Path 1" d="M30.412,28.984h0a.411.411,0,0,0,.081-.009.149.149,0,0,0,.027-.007.493.493,0,0,0,.048-.014.233.233,0,0,0,.03-.014.427.427,0,0,0,.039-.021.272.272,0,0,0,.029-.02.262.262,0,0,0,.034-.029.285.285,0,0,0,.023-.023.262.262,0,0,0,.029-.034c.007-.009.013-.018.02-.029s.014-.025.021-.039a.253.253,0,0,0,.014-.032.277.277,0,0,0,.013-.041.263.263,0,0,0,.009-.036.026.026,0,0,1,0-.011L32.1,20.149v-.03c0-.011,0-.021,0-.032v-.011a.377.377,0,0,0,0-.045.3.3,0,0,0-.005-.039.253.253,0,0,0-.013-.039.348.348,0,0,0-.014-.039.211.211,0,0,0-.02-.034.237.237,0,0,0-.021-.036.206.206,0,0,0-.025-.03c-.009-.011-.018-.021-.027-.03l-.032-.027a.211.211,0,0,0-.032-.023c-.011-.007-.023-.013-.036-.02a.357.357,0,0,0-.038-.018c-.013-.005-.025-.007-.036-.011a.407.407,0,0,0-.045-.011l-.011,0c-.013,0-.023,0-.036,0s-.018,0-.027,0h-13.6L17.7,17.06a.424.424,0,0,0-.419-.36H14.734a.424.424,0,1,0,0,.849h2.178l1.682,11.1v0l.338,2.23a1.7,1.7,0,1,0,2.774.227h5.967a1.691,1.691,0,0,0,1.465,2.541,1.694,1.694,0,0,0,0-3.388H19.693L19.5,28.989H30.41Zm.779-8.475-1.144,7.628H19.373l-1.155-7.628ZM21.09,31.95a.847.847,0,1,1-.847-.847A.848.848,0,0,1,21.09,31.95Zm8.9,0a.847.847,0,1,1-.847-.847A.848.848,0,0,1,29.989,31.95Z" transform="translate(1331.218 26.351)" fill="#1e1e1e" stroke="#1e1e1e" stroke-width="0.5"/>
  </g>
</svg>
