<svg xmlns="http://www.w3.org/2000/svg" width="301" height="412" viewBox="0 0 301 412">
  <g id="Path_3535" data-name="Path 3535" fill="#f5f5f5">
    <path d="M 299 411.5 L 2 411.5 C 1.172894716262817 411.5 0.5 410.8271179199219 0.5 410 L 0.5 2 C 0.5 1.172894716262817 1.172894716262817 0.5 2 0.5 L 299 0.5 C 299.8271179199219 0.5 300.5 1.172894716262817 300.5 2 L 300.5 410 C 300.5 410.8271179199219 299.8271179199219 411.5 299 411.5 Z" stroke="none"/>
    <path d="M 2 1 C 1.448577880859375 1 1 1.448577880859375 1 2 L 1 410 C 1 410.5514221191406 1.448577880859375 411 2 411 L 299 411 C 299.5514221191406 411 300 410.5514221191406 300 410 L 300 2 C 300 1.448577880859375 299.5514221191406 1 299 1 L 2 1 M 2 0 L 299 0 C 300.1045837402344 0 301 0.895416259765625 301 2 L 301 410 C 301 411.1045837402344 300.1045837402344 412 299 412 L 2 412 C 0.895416259765625 412 0 411.1045837402344 0 410 L 0 2 C 0 0.895416259765625 0.895416259765625 0 2 0 Z" stroke="none" fill="#e5e5e5"/>
  </g>
</svg>
