<svg xmlns="http://www.w3.org/2000/svg" width="26.98" height="15.792" viewBox="0 0 26.98 15.792">
  <g id="truck" transform="translate(-0.14 -0.12)">
    <path id="Path_4" data-name="Path 4" d="M25,3.564a2.325,2.325,0,0,0-2-1.172H17.674a.133.133,0,0,1-.133-.133A2.318,2.318,0,0,0,15.229.12H.673A.533.533,0,0,0,.14.653h0a.54.54,0,0,0,.533.54H15.222a1.239,1.239,0,0,1,1.246,1.2V13.13a.133.133,0,0,1-.133.14h-3a.533.533,0,0,0-.54.533h0a.533.533,0,0,0,.54.533h7.108a.147.147,0,0,1,.14.1,2.072,2.072,0,0,0,3.944,0,.14.14,0,0,1,.133-.1h0a2.465,2.465,0,0,0,2.465-2.465V7.914a2.345,2.345,0,0,0-.3-1.139ZM23.556,13.883a1.006,1.006,0,0,1-1.006.926h0a1.013,1.013,0,0,1-.973-.739v-.526a1.014,1.014,0,1,1,2,.34Zm2.472-1.852a1.246,1.246,0,0,1-1.246,1.246H24.7a.147.147,0,0,1-.14-.1,2.072,2.072,0,0,0-3.944,0,.14.14,0,0,1-.14.1H17.68a.133.133,0,0,1-.14-.133V3.6a.133.133,0,0,1,.14-.133H22.97a1.259,1.259,0,0,1,1.066.626l1.506,2.6a.133.133,0,0,1-.033.187.147.147,0,0,1-.087,0H20.092a.533.533,0,0,0-.533.533h0a.533.533,0,0,0,.533.533h5.789a.14.14,0,0,1,.14.14Z" transform="translate(0 0)" fill="#313131"/>
    <path id="Path_5" data-name="Path 5" d="M7.69,17.406H4.519a.24.24,0,0,1-.24-.24h0V13.023a.533.533,0,0,0-.533-.533H3.733a.533.533,0,0,0-.533.533v4.81a.666.666,0,0,0,.633.666H7.69a2.078,2.078,0,1,0,0-1.073Zm1.292-.18a1.033,1.033,0,0,1,.706-.3h0a1.013,1.013,0,1,1-.706.3Z" transform="translate(-1.022 -4.129)" fill="#313131"/>
    <rect id="Rectangle_12" data-name="Rectangle 12" width="5.836" height="1.066" rx="0.533" transform="translate(0.14 2.705)" fill="#313131"/>
    <rect id="Rectangle_13" data-name="Rectangle 13" width="4.843" height="1.066" rx="0.533" transform="translate(1.432 5.29)" fill="#313131"/>
    <path id="Path_6" data-name="Path 6" d="M17.818,7.475h0a.533.533,0,0,0-.739,0h0l-3.071,3.1a.24.24,0,0,1-.34,0h0L12.555,9.48a.533.533,0,0,0-.739,0h0a.533.533,0,0,0,0,.739h0l1.466,1.466a.753.753,0,0,0,1.066,0h0L17.8,8.221a.526.526,0,0,0,0-.739Z" transform="translate(-3.848 -2.406)" fill="#313131"/>
  </g>
</svg>
